<mxfile host="app.diagrams.net" agent="Mozilla/5.0 (Windows NT 10.0; Win64; x64) AppleWebKit/537.36 (KHTML, like Gecko) Chrome/137.0.0.0 Safari/537.36" border="50" scale="3" compressed="false" locked="false" version="24.8.0">
  <diagram name="Blank" id="YmL12bMKpDGza6XwsDPr">
    <mxGraphModel dx="1395" dy="615" grid="1" gridSize="10" guides="1" tooltips="1" connect="1" arrows="1" fold="1" page="1" pageScale="1" pageWidth="827" pageHeight="1169" background="none" math="1" shadow="0">
      <root>
        <mxCell id="X5NqExCQtvZxIxQ7pmgY-0" />
        <mxCell id="1" parent="X5NqExCQtvZxIxQ7pmgY-0" />
        <mxCell id="NjAqU9Y5rHBkyYTPuW-a-1" value="" style="swimlane;fontStyle=2;childLayout=stackLayout;horizontal=1;startSize=20;fillColor=none;horizontalStack=1;resizeParent=1;resizeParentMax=0;resizeLast=0;collapsible=0;marginBottom=0;swimlaneFillColor=none;strokeColor=none;fontFamily=Helvetica;fontSize=14;fontColor=#BABABA;points=[];verticalAlign=middle;stackBorder=10;stackSpacing=-10;resizable=1;" parent="1" vertex="1">
          <mxGeometry x="140" y="380" width="786" height="99" as="geometry" />
        </mxCell>
        <mxCell id="NjAqU9Y5rHBkyYTPuW-a-2" value="Perception" style="shape=step;perimeter=stepPerimeter;strokeColor=#6C8EBF;fontFamily=Helvetica;fontSize=14;fontColor=#6C8EBF;fillColor=#dae8fc;fixedSize=1;size=17;fontStyle=1;strokeWidth=2;spacingTop=0;points=[];" parent="NjAqU9Y5rHBkyYTPuW-a-1" vertex="1">
          <mxGeometry x="10" y="30" width="334" height="59" as="geometry" />
        </mxCell>
        <mxCell id="NjAqU9Y5rHBkyYTPuW-a-3" value="Plan" style="shape=step;perimeter=stepPerimeter;strokeColor=#82B366;fontFamily=Helvetica;fontSize=14;fontColor=#82B366;fillColor=#d5e8d4;fixedSize=1;size=17;fontStyle=1;strokeWidth=2;spacingTop=0;points=[];" parent="NjAqU9Y5rHBkyYTPuW-a-1" vertex="1">
          <mxGeometry x="334" y="30" width="332" height="59" as="geometry" />
        </mxCell>
        <mxCell id="NjAqU9Y5rHBkyYTPuW-a-4" value="Act" style="shape=step;perimeter=stepPerimeter;strokeColor=#D6B656;fontFamily=Helvetica;fontSize=14;fontColor=#D6B656;fillColor=#fff2cc;fixedSize=1;size=17;fontStyle=1;strokeWidth=2;spacingTop=0;points=[];" parent="NjAqU9Y5rHBkyYTPuW-a-1" vertex="1">
          <mxGeometry x="656" y="30" width="120" height="59" as="geometry" />
        </mxCell>
        <mxCell id="mnBOZBtSQypyQwuSaZrI-2" value="SerDes" style="rounded=1;whiteSpace=wrap;html=1;" vertex="1" parent="1">
          <mxGeometry x="213" y="316.25" width="120" height="22.5" as="geometry" />
        </mxCell>
        <mxCell id="mnBOZBtSQypyQwuSaZrI-4" value="PreProcessing&lt;div&gt;(color space, resize ...)&lt;/div&gt;" style="rounded=1;whiteSpace=wrap;html=1;" vertex="1" parent="1">
          <mxGeometry x="436" y="303" width="86" height="47.5" as="geometry" />
        </mxCell>
        <mxCell id="mnBOZBtSQypyQwuSaZrI-5" value="AI Algorithms (VLM, CNNs...)" style="swimlane;whiteSpace=wrap;html=1;" vertex="1" parent="1">
          <mxGeometry x="565" y="249" width="208" height="131" as="geometry" />
        </mxCell>
        <mxCell id="mnBOZBtSQypyQwuSaZrI-12" value="&lt;pre&gt;Residual Detection&lt;/pre&gt;&lt;pre&gt;Behavior Detection&lt;/pre&gt;&lt;div&gt;gesture recognition&lt;/div&gt;&lt;div&gt;&lt;b&gt;...&lt;/b&gt;&lt;/div&gt;" style="text;html=1;align=center;verticalAlign=middle;whiteSpace=wrap;rounded=0;" vertex="1" parent="mnBOZBtSQypyQwuSaZrI-5">
          <mxGeometry x="12" y="22" width="172" height="100" as="geometry" />
        </mxCell>
        <mxCell id="mnBOZBtSQypyQwuSaZrI-6" value="&lt;div&gt;Display Screen&lt;/div&gt;&lt;div&gt;&lt;br&gt;&lt;/div&gt;&lt;div&gt;Sound Effects&lt;/div&gt;&lt;div&gt;&lt;br&gt;&lt;/div&gt;&lt;div&gt;Seatbelt Reminder&lt;/div&gt;&lt;div&gt;&lt;br&gt;&lt;/div&gt;&lt;div&gt;Horn&lt;/div&gt;&lt;div&gt;&lt;br&gt;&lt;/div&gt;&lt;div&gt;Hazards&lt;/div&gt;&lt;div&gt;&lt;br&gt;&lt;/div&gt;&lt;div&gt;Other Signals&lt;/div&gt;" style="rounded=1;whiteSpace=wrap;html=1;" vertex="1" parent="1">
          <mxGeometry x="800" y="170" width="115" height="221" as="geometry" />
        </mxCell>
        <mxCell id="mnBOZBtSQypyQwuSaZrI-7" value="Image/Video Processing" style="sketch=0;outlineConnect=0;fontColor=#232F3E;gradientColor=none;strokeColor=#232F3E;fillColor=#ffffff;dashed=0;verticalLabelPosition=bottom;verticalAlign=top;align=center;html=1;fontSize=12;fontStyle=0;aspect=fixed;shape=mxgraph.aws4.resourceIcon;resIcon=mxgraph.aws4.camera;" vertex="1" parent="1">
          <mxGeometry x="354" y="297.5" width="60" height="60" as="geometry" />
        </mxCell>
        <mxCell id="mnBOZBtSQypyQwuSaZrI-10" value="" style="shape=mxgraph.signs.tech.camera_2;html=1;pointerEvents=1;fillColor=#000000;strokeColor=none;verticalLabelPosition=bottom;verticalAlign=top;align=center;" vertex="1" parent="1">
          <mxGeometry x="126" y="304.5" width="56" height="46" as="geometry" />
        </mxCell>
        <mxCell id="mnBOZBtSQypyQwuSaZrI-14" value="" style="endArrow=none;dashed=1;html=1;rounded=0;" edge="1" parent="1">
          <mxGeometry width="50" height="50" relative="1" as="geometry">
            <mxPoint x="832.5" y="226.21000000000004" as="sourcePoint" />
            <mxPoint x="882.5" y="226.21000000000004" as="targetPoint" />
          </mxGeometry>
        </mxCell>
        <mxCell id="mnBOZBtSQypyQwuSaZrI-15" value="" style="endArrow=none;dashed=1;html=1;rounded=0;" edge="1" parent="1">
          <mxGeometry width="50" height="50" relative="1" as="geometry">
            <mxPoint x="832.5" y="252.38" as="sourcePoint" />
            <mxPoint x="882.5" y="252.38" as="targetPoint" />
          </mxGeometry>
        </mxCell>
        <mxCell id="mnBOZBtSQypyQwuSaZrI-16" value="" style="endArrow=none;dashed=1;html=1;rounded=0;" edge="1" parent="1">
          <mxGeometry width="50" height="50" relative="1" as="geometry">
            <mxPoint x="832.5" y="281.38" as="sourcePoint" />
            <mxPoint x="882.5" y="281.38" as="targetPoint" />
          </mxGeometry>
        </mxCell>
        <mxCell id="mnBOZBtSQypyQwuSaZrI-17" value="" style="endArrow=none;dashed=1;html=1;rounded=0;" edge="1" parent="1">
          <mxGeometry width="50" height="50" relative="1" as="geometry">
            <mxPoint x="832.5" y="308.38" as="sourcePoint" />
            <mxPoint x="882.5" y="308.38" as="targetPoint" />
          </mxGeometry>
        </mxCell>
        <mxCell id="mnBOZBtSQypyQwuSaZrI-18" value="" style="endArrow=none;dashed=1;html=1;rounded=0;" edge="1" parent="1">
          <mxGeometry width="50" height="50" relative="1" as="geometry">
            <mxPoint x="832.5" y="338.38" as="sourcePoint" />
            <mxPoint x="882.5" y="338.38" as="targetPoint" />
          </mxGeometry>
        </mxCell>
      </root>
    </mxGraphModel>
  </diagram>
</mxfile>
